<?xml version="1.0" encoding="utf-8"?>
<!-- Generator: Adobe Illustrator 15.0.0, SVG Export Plug-In . SVG Version: 6.00 Build 0)  -->
<!DOCTYPE svg PUBLIC "-//W3C//DTD SVG 1.1//EN" "http://www.w3.org/Graphics/SVG/1.1/DTD/svg11.dtd">
<svg version="1.1" xmlns="http://www.w3.org/2000/svg" xmlns:xlink="http://www.w3.org/1999/xlink" x="0px" y="0px" width="1000px"
	 height="1000px" viewBox="0 0 1000 1000" enable-background="new 0 0 1000 1000" xml:space="preserve">
<g id="Layer_1" display="none">
	<rect x="-212.374" y="-87.88" display="inline" width="1310.934" height="1154.942"/>
</g>
<g id="Layer_6">
	<g>
		<path fill="#932222" d="M937.18,473c0,158.58-128.55,287.14-287.14,287.14c-5.72,0-7.05-0.059-7.05-0.059
			c-5.494-0.243-9.99-4.941-9.99-10.441V196.36c0-5.5,4.496-10.199,9.99-10.441c0,0,1.33-0.059,7.05-0.059
			C808.63,185.86,937.18,314.42,937.18,473z"/>
	</g>
</g>
<g id="Layer_5">
	<g>
		<path fill="#ED1C24" d="M887.255,367.623c-0.463,5.48-3.963,6.724-7.779,2.763c0,0-0.848-0.879-13.119-10.328
			c-42.407-32.652-102.839-55.312-171.48-61.672c-12.921-1.197-26.132-1.817-39.569-1.817c-5.474,0-6.311,0.024-6.311,0.024
			c-5.498,0.157-9.996-4.214-9.996-9.714v-33.24c0-5.5,4.497-10.166,9.993-10.369c0,0,0.84-0.031,6.313-0.031
			c15.102,0,29.919,1.019,44.357,2.979c63.808,8.664,113.13,30.557,154.169,69.28c8.929,8.426,22.734,23.846,27.567,34.328
			C887.618,363.313,887.255,367.623,887.255,367.623z"/>
	</g>
	<g>
		<path fill="#F15A24" d="M905.471,433.987c0.587,5.469-2.912,7.841-7.774,5.272c0,0-4.57-2.414-12.833-5.69
			c-42.212-16.736-110.52-28.581-189.789-31.583c-12.984-0.492-26.262-0.746-39.768-0.746c-5.474,0-6.308,0.01-6.308,0.01
			c-5.499,0.066-9.999-4.38-9.999-9.88v-64.92c0-5.5,4.499-10.112,9.997-10.249c0,0,0.836-0.021,6.31-0.021
			c12.879,0,25.55,0.506,37.957,1.485c76.919,6.068,143.663,30.316,186.497,64.904c7.907,6.384,14.249,12.961,14.249,12.961
			c3.817,3.959,7.675,11.639,8.572,17.065L905.471,433.987z"/>
	</g>
	<g>
		<path fill="#D4145A" d="M907.67,473c0,6.41-0.104,9.107-0.104,9.107c-0.212,5.496-4.625,11.498-9.809,13.338
			c0,0-4.434,1.574-13.05,3.842c-41.475,10.917-108.039,18.699-185.413,20.864c-14.322,0.4-29.016,0.608-43.988,0.608
			c-5.474,0-6.307-0.006-6.307-0.006c-5.5-0.041-10-4.574-10-10.074v-75.36c0-5.5,4.5-10.033,10-10.073c0,0,0.833-0.006,6.307-0.006
			c13.497,0,26.767,0.169,39.742,0.496c78.275,1.972,145.864,9.681,188.199,20.595c9.229,2.379,14.504,4.241,14.504,4.241
			c5.187,1.83,9.603,7.824,9.814,13.32C907.566,463.893,907.67,466.59,907.67,473z"/>
	</g>
	<g>
		<path fill="#C1272D" d="M897.683,506.716c4.87-2.556,8.375-0.171,7.788,5.298l-2.888,21.39
			c-0.898,5.427-4.771,13.091-8.607,17.032c0,0-7.804,8.018-16.726,14.988c-41.91,32.746-105.514,55.865-178.741,62.468
			c-14.073,1.27-28.503,1.929-43.202,1.929c-5.474,0-6.31-0.021-6.31-0.021c-5.499-0.143-9.997-4.759-9.997-10.259v-64.91
			c0-5.5,4.5-9.946,9.999-9.88c0,0,0.834,0.01,6.308,0.01c15.188,0,30.087-0.322,44.604-0.941
			c76.176-3.248,141.82-14.682,183.277-30.73C892.146,509.619,897.683,506.716,897.683,506.716z"/>
	</g>
	<g>
		<path fill="#ED1C24" d="M889.667,574c4.067,3.135-3.157,17.915-3.157,17.915c-2.415,4.941-7.188,12.51-10.607,16.818
			c0,0-9.266,11.678-20.276,21.488c-40.791,36.345-95.561,61.583-157.13,69.715c-14.07,1.858-28.494,2.823-43.189,2.823
			c-5.474,0-6.313-0.031-6.313-0.031c-5.496-0.202-9.993-4.868-9.993-10.368v-33.24c0-5.5,4.498-9.871,9.996-9.714
			c0,0,0.837,0.023,6.311,0.023c14.724,0,29.175-0.744,43.271-2.177c71.499-7.266,133.798-32.273,175.723-67.724
			C881.333,573.583,886.967,571.919,889.667,574z"/>
	</g>
</g>
<g id="Layer_7">
	<g>
		<path fill="#333333" d="M689.667,756.557c0,1.971-2.238,3.811-4.975,4.088l-74.051,7.518c-2.736,0.277-4.953-1.745-4.927-4.495
			l5.488-579.5c0.025-2.75,2.285-4.769,5.021-4.487l28.843,2.975c2.735,0.282,4.974,2.763,4.974,5.513V276.5
			c0,2.75,2.171,5.591,4.824,6.314l29.979,8.163c2.653,0.723,4.824,3.564,4.824,6.314v20.542c0,2.75-2.198,5.481-4.885,6.068
			l-29.857,6.53c-2.687,0.588-4.885,3.318-4.885,6.068v410.167c0,2.75,2.249,5.074,4.997,5.165l29.633,0.976
			C687.418,752.898,689.667,754.585,689.667,756.557z"/>
	</g>
</g>
<g id="Layer_2">
	<g>
		<path fill="#808080" d="M474,168.25c2.75,0,5,2.25,5,5v602.583c0,2.75-2.25,5-5,5H361c-2.75,0-5-2.25-5-5V173.25
			c0-2.75,2.25-5,5-5h1.5c2.75,0,5.788-0.694,6.75-1.542c0.963-0.848,4-1.542,6.75-1.542h0.25c2.75,0,6.125,1.594,7.5,3.542
			c1.375,1.948,4.188,3.542,6.25,3.542c2.062,0,4.762-1.594,6-3.542c1.238-1.948,4.5-3.542,7.25-3.542h0.25
			c2.75,0,6.35,1.594,8,3.542c1.65,1.948,4.688,3.542,6.75,3.542s5.1-1.594,6.75-3.542c1.65-1.948,5.194-3.542,7.875-3.542
			s6.281,1.594,8,3.542c1.719,1.948,4.475,3.542,6.125,3.542c1.649,0,4.35-1.594,6-3.542c1.65-1.948,4.913-3.542,7.25-3.542
			s4.925,0.694,5.75,1.542c0.825,0.848,3.75,1.542,6.5,1.542H474z"/>
	</g>
	<g>
		<path fill="#CCCCCC" d="M358,161c2.75,0,5,2.25,5,5v614c0,2.75-2.25,5-5,5H71c-2.75,0-5-2.25-5-5V166c0-2.75,2.25-5,5-5H358z"/>
	</g>
	<g>
		<path fill="#CCCCCC" d="M577.5,161c2.75,0,7.101,0.806,9.668,1.791l27.164,10.419C616.899,174.195,619,177.25,619,180v587.5
			c0,2.75-2.129,5.729-4.73,6.62l-27.039,9.26c-2.602,0.892-6.98,1.62-9.73,1.62H477c-2.75,0-5-2.25-5-5V166c0-2.75,2.25-5,5-5
			H577.5z"/>
	</g>
</g>
<g id="Layer_9">
	<g>
		<path fill="#666666" d="M358,543.688c2.75-0.012,5.015,2.229,5.033,4.979L364.559,780c0.019,2.75-2.217,5-4.967,5H160
			c-2.75,0-4.934-2.249-4.854-4.998l0.435-14.864c0.08-2.749,2.304-5.635,4.942-6.412l21.534-6.349
			c2.638-0.777,4.979-3.541,5.203-6.141c0.224-2.6-1.843-4.731-4.593-4.737L71,741.261c-2.75-0.006-5-2.261-5-5.011V556.532
			c0-2.75,2.25-5.001,5-5.002l73.667-0.028c2.75-0.001,6.289-1.577,7.865-3.502c1.576-1.925,5.115-3.509,7.865-3.521L358,543.688z"
			/>
	</g>
	<g>
		<path fill="#666666" d="M615.375,591.25c1.994,0,3.625,2.25,3.625,5v101.51c0,2.75-1.952,5.669-4.339,6.486
			c-2.387,0.816-4.616,3.718-4.955,6.447l-2.171,17.492c-0.339,2.729-2.742,5.7-5.34,6.603l-9.805,3.404
			c-2.598,0.902-4.979-0.595-5.289-3.327l-2.114-18.553c-0.311-2.732-2.085-4.841-3.943-4.687c-1.857,0.154-3.581,2.522-3.83,5.261
			l-1.761,19.384c-0.25,2.738-2.703,4.999-5.453,5.023l-19.5,0.172c-2.75,0.024-5,1.984-5,4.356s2.076,5.179,4.615,6.236
			l14.77,6.157c2.539,1.058,4.705,4.172,4.816,6.92l0.598,14.868c0.111,2.748-2.049,4.996-4.799,4.996H477c-2.75,0-5-2.25-5-5
			V548.667c0-2.75,2.25-4.992,5-4.982l82.75,0.299c2.75,0.01,5.506,1.536,6.125,3.392c0.619,1.856,2.588,3.881,4.375,4.5
			c1.788,0.619,3.543,3.356,3.898,6.083l1.58,12.084c0.355,2.727,2.278,4.844,4.271,4.705c1.994-0.139,3.889-2.487,4.21-5.219
			l1.469-12.468c0.321-2.731,2.812-5.288,5.533-5.682l11.508-1.663c2.722-0.394,5.165,1.523,5.429,4.261l3.121,32.297
			C611.533,589.011,613.381,591.25,615.375,591.25z"/>
	</g>
	<g>
		<path fill="#303030" d="M472,780c0,2.75-2.25,5-5,5h-99c-2.75,0-5-2.25-5-5V545.667c0-2.75,2.25-5,5-5h1.75
			c2.75,0,5.184-2.242,5.408-4.983l6.183-75.45c0.225-2.741,2.208-4.983,4.409-4.983s4.23,2.238,4.51,4.974l7.731,75.469
			c0.28,2.735,2.084,4.974,4.009,4.974s3.684-2.242,3.908-4.983l6.184-75.45c0.225-2.741,2.489-4.983,5.033-4.983
			s4.828,2.241,5.076,4.979l6.846,75.458c0.249,2.738,2.139,4.979,4.202,4.979c2.063,0,3.895-2.245,4.071-4.989l4.858-75.438
			c0.177-2.745,2.177-4.99,4.446-4.99c2.269,0,4.361,2.238,4.649,4.973l7.952,75.472c0.288,2.735,2.774,4.973,5.524,4.973H467
			c2.75,0,5,2.25,5,5V780z"/>
	</g>
	<g>
		<path fill="#1A1A1A" d="M650.04,716.167c0,2.75-2.245,5.155-4.988,5.344l-21.063,1.453c-2.743,0.188-4.988-1.906-4.988-4.656
			V571.794c0-2.75,2.249-5.062,4.998-5.137l21.044-0.575c2.749-0.075,4.998,2.113,4.998,4.863V716.167z"/>
	</g>
</g>
<g id="Layer_8">
	<g>
		<path fill="#F2F2F2" d="M359.063,174c2.166,0,3.938,2.25,3.938,5v158.167c0,2.75-1.744,5-3.875,5s-3.965-2.248-4.076-4.996
			l-0.973-24.175c-0.111-2.748-2.451-4.998-5.201-4.999l-272.208-0.161c-2.75-0.001-5-2.253-5-5.003v-78.875c0-2.75,2.25-5,5-5
			l272.208,0.04c2.75,0,5.063-2.248,5.139-4.997l0.973-35.004C355.063,176.249,356.897,174,359.063,174z"/>
	</g>
	<g>
		<path fill="#F2F2F2" d="M609.071,227.224c2.619,0.838,4.763,3.773,4.763,6.523v71c0,2.75-2.245,4.858-4.99,4.685l-16.354-1.033
			c-2.745-0.173-5.139,1.93-5.32,4.674l-1.673,25.271c-0.182,2.744-1.268,4.989-2.413,4.989c-1.146,0-2.909-0.3-3.917-0.667
			c-1.008-0.366-2.049-2.906-2.312-5.644l-2.377-24.712c-0.263-2.737-2.729-4.977-5.479-4.977h-82.625
			c-2.75,0-5.153,2.245-5.341,4.988l-1.693,24.773c-0.188,2.744-1.916,4.988-3.841,4.988s-3.5-2.25-3.5-5v-158.75
			c0-2.75,1.509-5,3.354-5c1.845,0,3.501,2.245,3.682,4.989l2.302,35.021c0.181,2.744,2.578,4.989,5.328,4.989H568.5
			c2.75,0,5.133-2.246,5.296-4.991l2.075-35.018c0.163-2.745,1.158-4.991,2.213-4.991c1.054,0,2.854,0.263,4,0.583
			c1.146,0.321,2.223,2.829,2.393,5.574l2.214,35.687c0.17,2.745,2.453,5.675,5.072,6.513L609.071,227.224z"/>
	</g>
	<g>
		<path fill="#FFFFFF" d="M686.333,302c0,2.75-2.245,4.858-4.99,4.686l-48.186-3.038c-2.745-0.173-4.99-2.564-4.99-5.314v-38.208
			c0-2.75,2.244-4.832,4.986-4.626l8.36,0.627c2.742,0.206,4.986,2.624,4.986,5.374V279c0,2.75,2.169,5.599,4.819,6.331
			l30.194,8.337c2.65,0.732,4.819,3.581,4.819,6.331V302z"/>
	</g>
	<g>
		<path fill="#FFFFFF" d="M462.333,298.5c0,2.75-2.25,5-5,5H457c-2.75,0-5.825-1.8-6.833-4c-1.009-2.2-3.633-4-5.833-4
			s-4.675,1.8-5.5,4s-3.75,4-6.5,4H432c-2.75,0-6.2-1.8-7.667-4c-1.466-2.2-4.542-4-6.833-4s-4.991,1.8-6,4s-4.083,4-6.833,4h-0.001
			c-2.75,0-5.975-1.8-7.167-4s-4.042-4-6.333-4c-2.292,0-4.842,1.8-5.667,4s-3.75,4-6.5,4h-1c-2.75,0-5-2.25-5-5v-52.99
			c0-2.75,2.25-5,5-5l0,0c2.75,0,5.479,2.198,6.065,4.885l1.702,7.803c0.586,2.687,3.09,4.885,5.565,4.885s5.019-2.189,5.654-4.865
			l1.859-7.843c0.635-2.676,3.029-4.865,5.32-4.865s4.646,2.198,5.232,4.885l1.702,7.803c0.586,2.687,3.316,4.885,6.066,4.885h0.333
			c2.75,0,5.399-2.214,5.887-4.921l1.393-7.731c0.488-2.707,3.062-4.921,5.72-4.921c2.658,0,5.272,2.207,5.81,4.904l1.547,7.766
			c0.538,2.697,3.152,4.904,5.81,4.904c2.659,0,5.353-2.189,5.987-4.865l1.859-7.843c0.635-2.676,3.329-4.865,5.987-4.865
			s4.833,2.25,4.833,5V298.5z"/>
	</g>
	<g>
		<path fill="#FFFFFF" d="M780.8,338c-22.654,4.485-68.995,0.436-68.995,0.436c-2.74-0.24-5.076-2.684-5.192-5.431l-1.401-33.134
			c-0.116-2.748-2.364-5.649-4.996-6.447l-34.93-10.597c-2.632-0.798-4.785-3.702-4.785-6.452V253c0-2.75,2.245-5.155,4.988-5.344
			c0,0,43.097-2.969,107.281,36.616C803.945,303.5,805.144,333.18,780.8,338z"/>
	</g>
</g>
<g id="Layer_4">
	<g>
		<path fill="#CCCCCC" d="M161,784c0,2.75,2.078,5.863,4.618,6.918l64.765,26.895c2.54,1.055,6.868,1.918,9.618,1.918h281.427
			c2.75,0,6.76-1.402,8.911-3.115l30.752-24.5c2.15-1.713,3.91-5.365,3.91-8.115v-15.5c0-2.75-2.25-5-5-5H166c-2.75,0-5,2.25-5,5
			V784z"/>
	</g>
</g>
<g id="Layer_3">
	<g>
		<path fill="#CCCCCC" d="M157.667,711c0,2.75,2.179,5.56,4.843,6.243l64.314,16.514c2.664,0.684,7.093,1.243,9.843,1.243h281.427
			c2.75,0,7.018-0.994,9.484-2.209l29.604-14.582c2.467-1.215,4.484-4.459,4.484-7.209V554c0-2.75-2.25-5-5-5h-394
			c-2.75,0-5,2.25-5,5V711z"/>
	</g>
</g>
<g id="Layer_10">
	<g>
		<path fill="#666666" d="M553.85,772c2.75,0,5,0.959,5,2.131s-1.909,3.32-4.244,4.774l-26.418,16.451
			c-2.334,1.454-6.494,2.644-9.244,2.644h-281c-2.75,0-7.12-0.755-9.71-1.678l-53.189-18.947c-2.59-0.923-4.71-2.51-4.71-3.526
			s2.25-1.849,5-1.849H553.85z"/>
	</g>
	<g>
		<path fill="#666666" d="M554.57,562.764c1.576-2.253,2.865-1.847,2.865,0.903v140.416c0,2.75-2.076,5.866-4.614,6.925
			l-27.735,11.567c-2.539,1.059-6.865,1.925-9.615,1.925H238.556c-2.75,0-7.203-0.458-9.896-1.018l-61.868-12.863
			c-2.692-0.56-4.896-3.268-4.896-6.018V563.667c0-2.75,1.848-3.717,4.107-2.147l64.668,44.911c2.259,1.569,6.357,2.853,9.107,2.853
			h277.243c2.75,0,6.291-1.844,7.867-4.097L554.57,562.764z"/>
	</g>
</g>
</svg>
